<svg width="227" height="216" viewBox="0 0 227 216" fill="none" xmlns="http://www.w3.org/2000/svg">
<path d="M210.702 108C210.702 158.422 167.515 200 113.351 200C59.1875 200 16 158.422 16 108C16 57.5776 59.1875 16 113.351 16C167.515 16 210.702 57.5776 210.702 108Z" fill="white"/>
<path d="M210.702 108C210.702 158.422 167.515 200 113.351 200C59.1875 200 16 158.422 16 108C16 57.5776 59.1875 16 113.351 16C167.515 16 210.702 57.5776 210.702 108Z" stroke="black" stroke-width="16"/>
<path d="M210.702 108C210.702 158.422 167.515 200 113.351 200C59.1875 200 16 158.422 16 108C16 57.5776 59.1875 16 113.351 16C167.515 16 210.702 57.5776 210.702 108Z" stroke="black" stroke-opacity="0.2" stroke-width="16"/>
<path d="M113.351 212C173.545 212 222.702 165.632 222.702 108C222.702 50.3685 173.545 4 113.351 4C53.1572 4 4 50.3685 4 108C4 165.632 53.1572 212 113.351 212Z" fill="white" stroke="#333333" stroke-width="8"/>
<path d="M122.778 57.8281V173H99.127V57.8281H122.778ZM158.216 57.8281V76.417H64.2432V57.8281H158.216Z" fill="#333333"/>
</svg>
